<?xml version="1.0" encoding="UTF-8"?>
<svg version="1.1" xmlns="http://www.w3.org/2000/svg" xmlns:xlink="http://www.w3.org/1999/xlink" viewBox="0 0 800 600">
<g>
<text fill="#000000" font-family="sans-serif" font-size="19.0476" text-anchor="start" x="4.7619" y="591.429">
NIST Chemistry WebBook (https://webbook.nist.gov/chemistry)
</text>
<polyline stroke="#000000" stroke-width="1.19048" fill="none" points="95.2381,514.286 742.857,514.286 742.857,66.6667 95.2381,66.6667 95.2381,514.286"/>
<text fill="#000000" font-family="sans-serif" font-size="19.0476" text-anchor="middle" x="419.048" y="24.7619">
2-PROPENALDEHYDE, 3-PHENYL-
</text>
<text fill="#000000" font-family="sans-serif" font-size="19.0476" text-anchor="middle" x="419.048" y="53.3333">
INFRARED SPECTRUM
</text>
<text fill="#000000" font-family="sans-serif" font-size="19.0476" text-anchor="middle" x="419.048" y="558.095">
Wavenumber (cm-1)
</text>
<text fill="#000000" font-family="sans-serif" font-size="19.0476" text-anchor="middle" transform="translate(20,290.476) rotate(270)" x="0" y="0">
Transmitance
</text>
<text fill="#000000" font-family="sans-serif" font-size="19.0476" text-anchor="middle" x="673.72" y="534.286">
1000
</text>
<line stroke="#000000" stroke-width="1.19048" x1="673.72" y1="514.286" x2="673.72" y2="504.762"/>
<text fill="#000000" font-family="sans-serif" font-size="19.0476" text-anchor="middle" x="478.114" y="534.286">
2000
</text>
<line stroke="#000000" stroke-width="1.19048" x1="478.114" y1="514.286" x2="478.114" y2="504.762"/>
<text fill="#000000" font-family="sans-serif" font-size="19.0476" text-anchor="middle" x="282.508" y="534.286">
3000
</text>
<line stroke="#000000" stroke-width="1.19048" x1="282.508" y1="514.286" x2="282.508" y2="504.762"/>
<line stroke="#000000" stroke-width="1.19048" x1="732.401" y1="514.286" x2="732.401" y2="509.524"/>
<line stroke="#000000" stroke-width="1.19048" x1="712.841" y1="514.286" x2="712.841" y2="509.524"/>
<line stroke="#000000" stroke-width="1.19048" x1="693.28" y1="514.286" x2="693.28" y2="509.524"/>
<line stroke="#000000" stroke-width="1.19048" x1="673.72" y1="514.286" x2="673.72" y2="509.524"/>
<line stroke="#000000" stroke-width="1.19048" x1="654.159" y1="514.286" x2="654.159" y2="509.524"/>
<line stroke="#000000" stroke-width="1.19048" x1="634.599" y1="514.286" x2="634.599" y2="509.524"/>
<line stroke="#000000" stroke-width="1.19048" x1="615.038" y1="514.286" x2="615.038" y2="509.524"/>
<line stroke="#000000" stroke-width="1.19048" x1="595.477" y1="514.286" x2="595.477" y2="509.524"/>
<line stroke="#000000" stroke-width="1.19048" x1="575.917" y1="514.286" x2="575.917" y2="509.524"/>
<line stroke="#000000" stroke-width="1.19048" x1="556.356" y1="514.286" x2="556.356" y2="509.524"/>
<line stroke="#000000" stroke-width="1.19048" x1="536.796" y1="514.286" x2="536.796" y2="509.524"/>
<line stroke="#000000" stroke-width="1.19048" x1="517.235" y1="514.286" x2="517.235" y2="509.524"/>
<line stroke="#000000" stroke-width="1.19048" x1="497.674" y1="514.286" x2="497.674" y2="509.524"/>
<line stroke="#000000" stroke-width="1.19048" x1="478.114" y1="514.286" x2="478.114" y2="509.524"/>
<line stroke="#000000" stroke-width="1.19048" x1="458.553" y1="514.286" x2="458.553" y2="509.524"/>
<line stroke="#000000" stroke-width="1.19048" x1="438.993" y1="514.286" x2="438.993" y2="509.524"/>
<line stroke="#000000" stroke-width="1.19048" x1="419.432" y1="514.286" x2="419.432" y2="509.524"/>
<line stroke="#000000" stroke-width="1.19048" x1="399.872" y1="514.286" x2="399.872" y2="509.524"/>
<line stroke="#000000" stroke-width="1.19048" x1="380.311" y1="514.286" x2="380.311" y2="509.524"/>
<line stroke="#000000" stroke-width="1.19048" x1="360.75" y1="514.286" x2="360.75" y2="509.524"/>
<line stroke="#000000" stroke-width="1.19048" x1="341.19" y1="514.286" x2="341.19" y2="509.524"/>
<line stroke="#000000" stroke-width="1.19048" x1="321.629" y1="514.286" x2="321.629" y2="509.524"/>
<line stroke="#000000" stroke-width="1.19048" x1="302.069" y1="514.286" x2="302.069" y2="509.524"/>
<line stroke="#000000" stroke-width="1.19048" x1="282.508" y1="514.286" x2="282.508" y2="509.524"/>
<line stroke="#000000" stroke-width="1.19048" x1="262.948" y1="514.286" x2="262.948" y2="509.524"/>
<line stroke="#000000" stroke-width="1.19048" x1="243.387" y1="514.286" x2="243.387" y2="509.524"/>
<line stroke="#000000" stroke-width="1.19048" x1="223.826" y1="514.286" x2="223.826" y2="509.524"/>
<line stroke="#000000" stroke-width="1.19048" x1="204.266" y1="514.286" x2="204.266" y2="509.524"/>
<line stroke="#000000" stroke-width="1.19048" x1="184.705" y1="514.286" x2="184.705" y2="509.524"/>
<line stroke="#000000" stroke-width="1.19048" x1="165.145" y1="514.286" x2="165.145" y2="509.524"/>
<line stroke="#000000" stroke-width="1.19048" x1="145.584" y1="514.286" x2="145.584" y2="509.524"/>
<line stroke="#000000" stroke-width="1.19048" x1="126.024" y1="514.286" x2="126.024" y2="509.524"/>
<line stroke="#000000" stroke-width="1.19048" x1="106.463" y1="514.286" x2="106.463" y2="509.524"/>
<text fill="#000000" font-family="sans-serif" font-size="19.0476" text-anchor="end" x="90.4762" y="437.44">
0.2
</text>
<line stroke="#000000" stroke-width="1.19048" x1="95.2381" y1="433.155" x2="104.762" y2="433.155"/>
<text fill="#000000" font-family="sans-serif" font-size="19.0476" text-anchor="end" x="90.4762" y="344.187">
0.4
</text>
<line stroke="#000000" stroke-width="1.19048" x1="95.2381" y1="339.901" x2="104.762" y2="339.901"/>
<text fill="#000000" font-family="sans-serif" font-size="19.0476" text-anchor="end" x="90.4762" y="250.933">
0.6
</text>
<line stroke="#000000" stroke-width="1.19048" x1="95.2381" y1="246.647" x2="104.762" y2="246.647"/>
<text fill="#000000" font-family="sans-serif" font-size="19.0476" text-anchor="end" x="90.4762" y="157.679">
0.8
</text>
<line stroke="#000000" stroke-width="1.19048" x1="95.2381" y1="153.393" x2="104.762" y2="153.393"/>
<line stroke="#000000" stroke-width="1.19048" x1="95.2381" y1="503.095" x2="100" y2="503.095"/>
<line stroke="#000000" stroke-width="1.19048" x1="95.2381" y1="479.782" x2="100" y2="479.782"/>
<line stroke="#000000" stroke-width="1.19048" x1="95.2381" y1="456.468" x2="100" y2="456.468"/>
<line stroke="#000000" stroke-width="1.19048" x1="95.2381" y1="433.155" x2="100" y2="433.155"/>
<line stroke="#000000" stroke-width="1.19048" x1="95.2381" y1="409.841" x2="100" y2="409.841"/>
<line stroke="#000000" stroke-width="1.19048" x1="95.2381" y1="386.528" x2="100" y2="386.528"/>
<line stroke="#000000" stroke-width="1.19048" x1="95.2381" y1="363.214" x2="100" y2="363.214"/>
<line stroke="#000000" stroke-width="1.19048" x1="95.2381" y1="339.901" x2="100" y2="339.901"/>
<line stroke="#000000" stroke-width="1.19048" x1="95.2381" y1="316.587" x2="100" y2="316.587"/>
<line stroke="#000000" stroke-width="1.19048" x1="95.2381" y1="293.274" x2="100" y2="293.274"/>
<line stroke="#000000" stroke-width="1.19048" x1="95.2381" y1="269.96" x2="100" y2="269.96"/>
<line stroke="#000000" stroke-width="1.19048" x1="95.2381" y1="246.647" x2="100" y2="246.647"/>
<line stroke="#000000" stroke-width="1.19048" x1="95.2381" y1="223.333" x2="100" y2="223.333"/>
<line stroke="#000000" stroke-width="1.19048" x1="95.2381" y1="200.02" x2="100" y2="200.02"/>
<line stroke="#000000" stroke-width="1.19048" x1="95.2381" y1="176.706" x2="100" y2="176.706"/>
<line stroke="#000000" stroke-width="1.19048" x1="95.2381" y1="153.393" x2="100" y2="153.393"/>
<line stroke="#000000" stroke-width="1.19048" x1="95.2381" y1="130.079" x2="100" y2="130.079"/>
<line stroke="#000000" stroke-width="1.19048" x1="95.2381" y1="106.766" x2="100" y2="106.766"/>
<line stroke="#000000" stroke-width="1.19048" x1="95.2381" y1="83.4523" x2="100" y2="83.4523"/>
<polyline stroke="#FF0000" stroke-width="1.19048" fill="none" points="742.857,192.093 742.624,191.627 742.39,190.228 742.157,189.296 741.923,189.296 741.69,187.897 741.456,187.431 741.223,186.964 740.989,186.498 740.756,186.498 740.523,185.565 740.289,185.565 740.056,185.099 739.822,185.565 739.589,186.498 739.355,186.964 739.122,187.897 738.888,189.296 738.655,190.228 738.421,191.161 738.188,191.627 737.954,191.627 737.721,191.627 737.488,191.161 737.254,191.161 737.021,191.161 736.787,191.627 736.554,194.891 736.32,198.108 736.087,203.237 735.853,207.014 735.62,216.339 735.386,228.416 735.153,252.662 734.919,310.293 734.686,333.28 734.453,357.945 734.219,381.725 733.986,381.865 733.752,365.219 733.519,359.018 733.285,332.021 733.052,318.919 732.818,288.704 732.585,263.526 732.351,242.077 732.118,222.028 731.885,209.439 731.651,196.383 731.418,186.591 731.184,178.571 730.951,171.577 730.717,166.448 730.484,161.786 730.25,158.056 730.017,154.792 729.783,151.528 729.55,148.73 729.316,148.264 729.083,148.264 728.849,148.264 728.616,148.264 728.383,147.798 728.149,146.399 727.916,145.466 727.682,144.067 727.449,143.135 727.215,142.202 726.982,142.202 726.748,142.202 726.515,143.601 726.281,144.534 726.048,146.865 725.815,149.196 725.581,153.393 725.348,158.941 725.114,165.003 724.881,172.93 724.647,182.255 724.414,193.865 724.18,207.48 723.947,225.665 723.713,242.87 723.48,285.72 723.246,329.037 723.013,347.734 722.78,373.799 722.546,399.443 722.313,426.907 722.079,427.093 721.846,421.032 721.612,413.571 721.379,399.583 721.145,385.642 720.912,371.654 720.678,357.199 720.445,344.61 720.211,284.321 719.978,263.106 719.745,241.704 719.511,216.339 719.278,195.823 719.044,178.571 718.811,164.63 718.577,154.372 718.344,145.513 718.11,139.451 717.877,134.789 717.643,131.478 717.41,125.463 717.176,120.754 716.943,117.956 716.71,116.091 716.476,114.226 716.243,113.294 716.009,111.895 715.776,110.962 715.542,109.564 715.309,108.631 715.075,107.698 714.842,107.232 714.608,105.833 714.375,105.833 714.141,104.901 713.908,103.502 713.675,103.036 713.441,102.569 713.208,102.569 712.974,102.103 712.741,101.171 712.507,101.171 712.274,101.171 712.04,101.171 711.807,101.171 711.573,101.171 711.34,101.171 711.107,101.171 710.873,101.171 710.64,101.171 710.406,101.171 710.173,101.171 709.939,101.171 709.706,101.171 709.472,101.171 709.239,101.171 709.005,101.171 708.772,101.171 708.538,101.171 708.305,101.171 708.071,102.103 707.838,102.569 707.605,103.036 707.371,104.435 707.138,105.367 706.904,107.698 706.671,108.631 706.437,109.097 706.204,109.564 705.97,110.03 705.737,110.962 705.503,111.895 705.27,113.76 705.037,116.091 704.803,117.956 704.57,119.355 704.336,121.22 704.103,121.687 703.869,121.687 703.636,121.687 703.402,121.687 703.169,121.22 702.935,120.754 702.702,119.355 702.468,117.956 702.235,116.558 702.002,114.692 701.768,113.294 701.535,109.564 701.301,107.232 701.068,103.549 700.834,102.103 700.601,100.238 700.367,99.7718 700.134,98.373 699.9,97.9067 699.667,97.4405 699.433,96.5079 699.2,96.5079 698.967,96.5079 698.733,96.5079 698.5,96.5079 698.266,96.5079 698.033,96.5079 697.799,96.5079 697.566,96.0417 697.332,96.0417 697.099,95.5754 696.865,95.1091 696.632,95.1091 696.398,94.1766 696.165,94.1766 695.932,94.1766 695.698,94.1766 695.465,94.1766 695.231,95.1091 694.998,95.5754 694.764,95.5754 694.531,95.5754 694.297,96.0417 694.064,96.0417 693.83,96.0417 693.597,96.0417 693.364,96.0417 693.13,96.5079 692.897,97.4405 692.663,98.373 692.43,98.8393 692.196,99.7718 691.963,100.238 691.729,100.238 691.496,100.704 691.262,100.704 691.029,101.171 690.795,102.103 690.562,102.569 690.329,103.502 690.095,104.901 689.862,105.367 689.628,107.232 689.395,108.631 689.161,109.097 688.928,109.097 688.694,109.097 688.461,108.631 688.227,108.631 687.994,108.631 687.76,107.698 687.527,107.232 687.294,107.232 687.06,107.232 686.827,107.698 686.593,108.631 686.36,108.631 686.126,108.631 685.893,108.631 685.659,108.631 685.426,109.097 685.192,109.097 684.959,109.564 684.725,109.564 684.492,110.03 684.259,110.962 684.025,110.962 683.792,111.429 683.558,112.361 683.325,114.226 683.091,116.558 682.858,118.889 682.624,121.22 682.391,123.085 682.157,125.417 681.924,128.214 681.69,132.877 681.457,136.141 681.224,142.202 680.99,150.549 680.757,159.874 680.523,171.531 680.29,186.871 680.056,210.091 679.823,234.524 679.589,267.163 679.356,293.227 679.122,331.415 678.889,357.992 678.656,374.358 678.422,375.337 678.189,374.405 677.955,372.073 677.722,359.111 677.488,351.091 677.255,337.569 677.021,324.98 676.788,303.112 676.554,285.394 676.321,262.127 676.087,244.875 675.854,225.758 675.621,214.521 675.387,203.377 675.154,193.958 674.92,173.442 674.687,165.05 674.453,164.583 674.22,164.583 673.986,167.381 673.753,171.111 673.519,174.375 673.286,179.924 673.052,183.234 672.819,195.823 672.586,202.817 672.352,207.48 672.119,214.008 671.885,214.94 671.652,214.94 671.418,214.474 671.185,205.195 670.951,198.201 670.718,185.659 670.484,179.97 670.251,170.645 670.018,160.387 669.784,155.258 669.551,148.264 669.317,141.783 669.084,138.472 668.85,136.607 668.617,136.141 668.383,136.141 668.15,136.141 667.916,136.141 667.683,134.276 667.449,133.81 667.216,127.282 666.982,120.754 666.749,117.024 666.516,113.294 666.282,111.429 666.049,110.962 665.815,110.03 665.582,109.564 665.348,109.097 665.115,108.631 664.881,108.631 664.648,108.631 664.414,108.631 664.181,108.631 663.948,108.631 663.714,109.097 663.481,109.097 663.247,109.564 663.014,109.564 662.78,110.962 662.547,111.429 662.313,112.361 662.08,112.361 661.846,113.76 661.613,116.091 661.379,119.355 661.146,122.619 660.913,124.95 660.679,128.214 660.446,132.877 660.212,141.223 659.979,148.684 659.745,158.941 659.512,175.214 659.278,179.924 659.045,179.97 658.811,176.706 658.578,152.927 658.344,137.54 658.111,131.478 657.878,129.613 657.644,129.613 657.411,129.613 657.177,130.079 656.944,130.546 656.71,132.411 656.477,132.877 656.243,133.81 656.01,136.141 655.776,138.939 655.543,141.27 655.309,144.534 655.076,148.73 654.843,154.745 654.609,158.056 654.376,165.003 654.142,172.976 653.909,179.504 653.675,184.633 653.442,189.762 653.208,194.425 652.975,199.087 652.741,205.568 652.508,213.961 652.274,223.753 652.041,236.762 651.808,253.175 651.574,273.224 651.341,297.424 651.107,326.799 650.874,362.655 650.64,404.106 650.407,435.812 650.173,461.457 649.94,478.29 649.706,488.548 649.473,489.573 649.24,489.573 649.006,488.641 648.773,480.248 648.539,474.653 648.306,466.307 648.072,452.785 647.839,435.579 647.605,417.861 647.372,385.828 647.138,360.836 646.905,327.312 646.671,301.2 646.438,277.934 646.204,256.019 645.971,237.368 645.738,221.515 645.504,207.993 645.271,196.803 645.037,188.876 644.804,183.234 644.57,180.903 644.337,173.442 644.103,169.712 643.87,169.712 643.636,170.645 643.403,171.577 643.17,175.774 642.936,182.255 642.703,191.58 642.469,193.958 642.236,193.958 642.002,192.093 641.769,177.639 641.535,163.697 641.302,154.372 641.068,146.445 640.835,141.736 640.601,139.405 640.368,139.405 640.135,139.405 639.901,140.804 639.668,143.135 639.434,145.466 639.201,148.73 638.967,150.595 638.734,150.595 638.5,148.264 638.267,143.182 638.033,138.985 637.8,133.81 637.567,131.478 637.333,127.748 637.1,126.349 636.866,125.417 636.633,125.417 636.399,124.95 636.166,124.018 635.932,124.018 635.699,124.95 635.465,125.417 635.232,126.349 634.998,127.748 634.765,130.546 634.531,131.944 634.298,135.208 634.065,137.073 633.831,137.073 633.598,135.208 633.364,130.126 633.131,121.687 632.897,117.024 632.664,113.76 632.43,110.03 632.197,109.097 631.964,107.698 631.73,107.232 631.497,105.833 631.263,105.367 631.03,105.367 630.796,105.367 630.563,105.367 630.329,105.833 630.096,107.232 629.862,107.698 629.629,110.03 629.395,114.226 629.162,116.558 628.928,118.423 628.695,120.288 628.462,120.754 628.228,121.687 627.995,124.018 627.761,128.681 627.528,134.276 627.294,138.472 627.061,142.202 626.827,144.534 626.594,148.264 626.36,151.528 626.127,155.724 625.893,159.454 625.66,163.651 625.427,166.448 625.193,171.577 624.96,172.976 624.726,172.044 624.493,167.381 624.259,164.117 624.026,159.501 623.792,152.927 623.559,142.202 623.325,134.276 623.092,124.95 622.859,117.956 622.625,111.429 622.392,109.097 622.158,107.232 621.925,104.901 621.691,104.435 621.458,104.435 621.224,104.435 620.991,104.435 620.757,104.435 620.524,104.435 620.29,104.901 620.057,105.367 619.823,105.833 619.59,106.766 619.357,107.698 619.123,109.097 618.89,110.962 618.656,113.294 618.423,116.091 618.189,120.288 617.956,129.566 617.722,139.358 617.489,153.346 617.255,167.288 617.022,184.54 616.789,211.677 616.555,214.94 616.322,214.474 616.088,207.946 615.855,186.545 615.621,173.489 615.388,166.495 615.154,160.434 614.921,159.454 614.687,159.454 614.454,160.387 614.22,160.387 613.987,160.387 613.754,159.921 613.52,157.589 613.287,146.912 613.053,137.586 612.82,130.126 612.586,128.214 612.353,128.214 612.119,129.613 611.886,130.546 611.652,133.81 611.419,135.208 611.185,138.939 610.952,140.804 610.719,141.736 610.485,142.202 610.252,141.736 610.018,141.27 609.785,139.405 609.551,138.472 609.318,136.141 609.084,132.877 608.851,128.214 608.617,123.552 608.384,118.889 608.151,113.76 607.917,108.678 607.684,103.549 607.45,102.569 607.217,101.171 606.983,100.238 606.75,99.7718 606.516,98.8393 606.283,98.373 606.049,98.373 605.816,97.9067 605.582,97.9067 605.349,97.9067 605.116,97.9067 604.882,97.9067 604.649,97.9067 604.415,97.9067 604.182,97.9067 603.948,98.373 603.715,98.373 603.481,98.373 603.248,98.373 603.014,98.373 602.781,98.373 602.547,98.8393 602.314,99.7718 602.081,100.238 601.847,101.171 601.614,102.569 601.38,103.036 601.147,104.901 600.913,105.833 600.68,106.766 600.446,107.698 600.213,109.097 599.979,110.03 599.746,112.361 599.512,114.226 599.279,117.024 599.046,120.288 598.812,123.552 598.579,124.018 598.345,124.018 598.112,123.552 597.878,123.085 597.645,120.754 597.411,120.288 597.178,117.024 596.944,114.226 596.711,111.895 596.477,108.631 596.244,106.766 596.011,105.833 595.777,104.435 595.544,102.569 595.31,100.704 595.077,100.238 594.843,99.7718 594.61,99.7718 594.376,99.7718 594.143,99.7718 593.909,99.7718 593.676,99.7718 593.443,99.7718 593.209,99.7718 592.976,99.7718 592.742,99.7718 592.509,99.7718 592.275,100.238 592.042,100.704 591.808,100.704 591.575,101.171 591.341,102.103 591.108,102.103 590.874,103.036 590.641,104.901 590.407,104.435 590.174,98.373 589.941,90.4464 589.707,88.5814 589.474,88.5814 589.24,89.5139 589.007,90.4464 588.773,91.379 588.54,92.7778 588.306,93.7103 588.073,95.1091 587.839,98.373 587.606,102.569 587.373,104.435 587.139,105.367 586.906,110.916 586.672,119.309 586.439,130.592 586.205,143.601 585.972,157.589 585.738,172.044 585.505,186.964 585.271,256.299 585.038,290.383 584.804,290.01 584.571,276.068 584.338,212.516 584.104,146.306 583.871,109.564 583.637,102.569 583.404,101.171 583.17,100.704 582.937,100.238 582.703,98.373 582.47,95.5754 582.236,95.1091 582.003,95.1091 581.77,94.1766 581.536,94.1766 581.303,95.5754 581.069,96.5079 580.836,97.9067 580.602,98.373 580.369,98.8393 580.135,98.8393 579.902,100.238 579.668,101.171 579.435,103.502 579.201,107.232 578.968,110.962 578.734,115.625 578.501,119.355 578.268,123.552 578.034,131.432 577.801,136.141 577.567,140.804 577.334,141.736 577.1,142.202 576.867,143.135 576.633,143.135 576.4,143.135 576.166,141.736 575.933,134.742 575.7,130.546 575.466,124.064 575.233,114.273 574.999,105.88 574.766,100.238 574.532,95.5754 574.299,92.7778 574.065,90.9127 573.832,90.4464 573.598,89.5139 573.365,89.5139 573.131,89.0476 572.898,89.0476 572.665,89.0476 572.431,89.0476 572.198,89.5139 571.964,89.5139 571.731,89.5139 571.497,89.5139 571.264,89.5139 571.03,89.5139 570.797,89.5139 570.563,89.5139 570.33,89.5139 570.096,89.5139 569.863,90.4464 569.63,90.4464 569.396,90.4464 569.163,90.4464 568.929,90.9127 568.696,92.7778 568.462,93.7103 568.229,93.7103 567.995,93.7103 567.762,93.7103 567.528,94.1766 567.295,94.1766 567.062,95.1091 566.828,95.1091 566.595,94.1766 566.361,94.1766 566.128,94.1766 565.894,94.1766 565.661,95.1091 565.427,97.4405 565.194,98.373 564.96,99.7718 564.727,100.238 564.493,103.502 564.26,107.232 564.026,108.631 563.793,109.097 563.56,110.962 563.326,110.962 563.093,111.429 562.859,111.429 562.626,111.429 562.392,111.895 562.159,115.625 561.925,122.619 561.692,130.546 561.458,145.42 561.225,158.009 560.991,162.252 560.758,169.293 560.525,192.093 560.291,202.817 560.058,202.817 559.824,192.093 559.591,173.955 559.357,161.832 559.124,139.498 558.89,132.924 558.657,132.411 558.423,132.877 558.19,134.276 557.957,137.54 557.723,140.804 557.49,145.933 557.256,154.325 557.023,173.396 556.789,185.053 556.556,194.844 556.322,206.035 556.089,217.785 555.855,229.861 555.622,230.794 555.388,232.192 555.155,232.659 554.922,233.125 554.688,234.99 554.455,240.585 554.221,250.797 553.988,249.444 553.754,235.41 553.521,225.198 553.287,213.075 553.054,210.744 552.82,210.744 552.587,216.339 552.353,242.87 552.12,280.078 551.886,306.236 551.653,317.007 551.42,332.067 551.186,367.97 550.953,404.759 550.719,443.413 550.486,450.407 550.252,450.407 550.019,447.609 549.785,411.38 549.552,390.817 549.318,354.542 549.085,308.567 548.852,267.116 548.618,239.653 548.385,209.345 548.151,202.817 547.918,202.351 547.684,201.419 547.451,200.952 547.217,199.554 546.984,198.621 546.75,198.621 546.517,202.351 546.283,204.683 546.05,209.811 545.817,210.744 545.583,212.609 545.35,219.137 545.116,239.56 544.883,255.879 544.649,260.588 544.416,262.034 544.182,269.028 543.949,281.151 543.715,300.734 543.482,324.514 543.249,358.039 543.015,399.956 542.782,424.669 542.548,440.568 542.315,468.918 542.081,489.154 541.848,502.629 541.614,507.758 541.381,511.488 541.147,512.421 540.914,512.421 540.68,513.819 540.447,513.819 540.214,514.286 539.98,513.819 539.747,509.157 539.513,504.494 539.28,498.899 539.046,489.573 538.813,482.113 538.579,482.113 538.346,482.113 538.112,481.647 537.879,467.705 537.646,450.034 537.412,433.574 537.179,412.592 536.945,380 536.712,348.76 536.478,322.695 536.245,300.781 536.011,283.529 535.778,273.737 535.544,258.816 535.311,255.972 535.077,255.459 534.844,246.6 534.61,230.794 534.377,219.603 534.144,212.143 533.91,207.48 533.677,201.419 533.443,187.011 533.21,179.551 532.976,171.158 532.743,162.718 532.509,162.252 532.276,162.252 532.042,162.252 531.809,162.252 531.576,162.718 531.342,164.117 531.109,164.583 530.875,165.05 530.642,165.05 530.408,164.583 530.175,163.651 529.941,159.454 529.708,153.393 529.474,146.399 529.241,138.472 529.007,130.079 528.774,125.417 528.541,123.552 528.307,118.003 528.074,111.429 527.84,106.766 527.607,103.502 527.373,101.171 527.14,99.7718 526.906,98.8393 526.673,97.9067 526.439,97.4405 526.206,96.5079 525.972,96.0417 525.739,96.0417 525.505,96.0417 525.272,96.0417 525.039,95.5754 524.805,95.1091 524.572,94.1766 524.338,93.7103 524.105,93.7103 523.871,92.7778 523.638,91.8452 523.404,91.379 523.171,90.9127 522.937,90.4464 522.704,89.5139 522.471,89.0476 522.237,88.1151 522.004,87.1826 521.77,86.7163 521.537,86.7163 521.303,86.25 521.07,86.25 520.836,86.25 520.603,86.25 520.369,85.7838 520.136,85.7838 519.902,85.7838 519.669,85.7838 519.436,85.7838 519.202,85.7838 518.969,85.7838 518.735,85.7838 518.502,86.25 518.268,86.25 518.035,86.25 517.801,86.25 517.568,86.7163 517.334,86.7163 517.101,88.1151 516.867,88.1151 516.634,88.5814 516.401,88.5814 516.167,89.0476 515.934,89.0476 515.7,89.0476 515.467,89.5139 515.233,89.5139 515,90.4464 514.766,90.4464 514.533,90.4464 514.299,90.4464 514.066,90.4464 513.833,89.5139 513.599,89.5139 513.366,89.0476 513.132,89.0476 512.899,88.1151 512.665,86.7163 512.432,84.8512 512.198,84.3849 511.965,83.9187 511.731,82.9861 511.498,82.5198 511.264,82.5198 511.031,81.5873 510.798,81.5873 510.564,80.1885 510.331,80.1885 510.097,79.7222 509.864,79.256 509.63,78.3234 509.397,77.8571 509.163,77.3909 508.93,77.3909 508.696,77.3909 508.463,76.9246 508.229,76.9246 507.996,75.9921 507.763,75.9921 507.529,75.9921 507.296,75.9921 507.062,75.9921 506.829,75.5258 506.595,75.5258 506.362,75.5258 506.128,75.5258 505.895,75.0595 505.661,75.0595 505.428,75.0595 505.194,75.0595 504.961,75.0595 504.728,75.5258 504.494,75.5258 504.261,75.5258 504.027,75.5258 503.794,75.5258 503.56,75.5258 503.327,75.5258 503.093,75.5258 502.86,75.5258 502.626,75.9921 502.393,75.9921 502.159,76.9246 501.926,76.9246 501.693,77.3909 501.459,77.3909 501.226,77.8571 500.992,78.3234 500.759,79.256 500.525,79.256 500.292,79.7222 500.058,79.7222 499.825,80.6548 499.591,81.5873 499.358,81.5873 499.125,80.6548 498.891,80.6548 498.658,80.1885 498.424,80.1885 498.191,79.7222 497.957,79.7222 497.724,79.7222 497.49,79.256 497.257,79.256 497.023,79.256 496.79,79.256 496.556,78.3234 496.323,78.3234 496.09,77.8571 495.856,77.3909 495.623,77.3909 495.389,76.9246 495.156,76.9246 494.922,76.9246 494.689,76.9246 494.455,76.9246 494.222,75.9921 493.988,75.9921 493.755,75.9921 493.521,75.5258 493.288,75.5258 493.055,75.5258 492.821,75.5258 492.588,75.5258 492.354,75.5258 492.121,75.0595 491.887,75.0595 491.654,75.0595 491.42,75.5258 491.187,75.5258 490.953,75.5258 490.72,75.5258 490.486,75.9921 490.253,76.9246 490.02,77.3909 489.786,77.3909 489.553,79.256 489.319,79.7222 489.086,80.1885 488.852,80.6548 488.619,81.5873 488.385,81.5873 488.152,82.5198 487.918,82.9861 487.685,82.9861 487.451,83.9187 487.218,84.8512 486.985,84.8512 486.751,85.7838 486.518,86.25 486.284,87.1826 486.051,88.5814 485.817,89.0476 485.584,89.0476 485.35,89.5139 485.117,89.5139 484.883,90.4464 484.65,90.4464 484.417,90.4464 484.183,90.4464 483.95,90.4464 483.716,90.4464 483.483,90.4464 483.249,90.4464 483.016,90.4464 482.782,90.4464 482.549,90.4464 482.315,89.5139 482.082,89.5139 481.848,89.0476 481.615,88.5814 481.382,88.1151 481.148,88.1151 480.915,87.1826 480.681,87.1826 480.448,86.7163 480.214,84.3849 479.981,83.9187 479.747,82.9861 479.514,82.5198 479.28,80.1885 479.047,79.256 478.813,77.8571 478.58,77.3909 478.347,76.9246 478.113,75.9921 477.88,75.5258 477.646,75.0595 477.413,75.0595 477.179,75.0595 476.946,74.5933 476.712,74.5933 476.479,73.6607 476.245,73.6607 476.012,73.1945 475.778,72.7282 475.545,72.2619 475.312,72.2619 475.078,70.8631 474.845,70.8631 474.611,70.3969 474.378,69.9306 474.144,69.9306 473.911,69.9306 473.677,69.9306 473.444,69.9306 473.21,69.9306 472.977,69.9306 472.743,68.998 472.51,68.998 472.277,68.998 472.043,68.998 471.81,68.5318 471.576,68.5318 471.343,68.5318 471.109,68.5318 470.876,68.5318 470.642,68.0655 470.409,68.5318 470.175,68.0655 469.942,68.0655 469.708,68.0655 469.475,68.0655 469.242,68.0655 469.008,68.0655 468.775,67.5992 468.541,67.5992 468.308,67.5992 468.074,67.5992 467.841,67.5992 467.607,67.5992 467.374,67.5992 467.14,67.5992 466.907,67.5992 466.674,67.5992 466.44,67.5992 466.207,67.5992 465.973,67.5992 465.74,67.5992 465.506,67.5992 465.273,67.5992 465.039,67.5992 464.806,67.5992 464.572,67.5992 464.339,67.5992 464.105,67.5992 463.872,67.5992 463.639,68.0655 463.405,68.0655 463.172,68.0655 462.938,68.0655 462.705,68.0655 462.471,68.0655 462.238,68.0655 462.004,68.0655 461.771,68.0655 461.537,68.0655 461.304,68.0655 461.07,68.0655 460.837,68.0655 460.604,68.0655 460.37,68.0655 460.137,68.0655 459.903,68.0655 459.67,68.0655 459.436,68.0655 459.203,68.0655 458.969,68.0655 458.736,68.0655 458.502,68.0655 458.269,68.0655 458.035,68.0655 457.802,67.6458 457.569,67.5992 457.335,67.5992 457.102,67.5992 456.868,67.5992 456.635,66.7133 456.401,66.6667 456.168,66.6667 455.934,66.6667 455.701,66.6667 455.467,66.6667 455.234,66.6667 455,66.6667 454.767,66.6667 454.534,66.6667 454.3,66.6667 454.067,66.6667 453.833,66.6667 453.6,66.6667 453.366,66.6667 453.133,66.6667 452.899,66.6667 452.666,66.6667 452.432,66.6667 452.199,66.6667 451.965,66.6667 451.732,66.6667 451.499,66.6667 451.265,66.6667 451.032,66.6667 450.798,66.6667 450.565,66.6667 450.331,66.6667 450.098,66.6667 449.864,66.6667 449.631,66.6667 449.397,67.5526 449.164,67.5992 448.931,67.5992 448.697,67.5992 448.464,67.5992 448.23,67.5992 447.997,67.5992 447.763,67.5992 447.53,67.5992 447.296,67.5992 447.063,67.5992 446.829,67.5992 446.596,67.5992 446.362,67.5992 446.129,68.0189 445.896,68.0655 445.662,68.0655 445.429,68.0655 445.195,68.4851 444.962,68.5318 444.728,68.5318 444.495,68.5318 444.261,68.5318 444.028,68.5318 443.794,68.5318 443.561,68.5318 443.327,68.5318 443.094,68.5318 442.861,68.5318 442.627,68.5318 442.394,68.5318 442.16,68.9514 441.927,68.998 441.693,68.998 441.46,68.998 441.226,68.998 440.993,68.998 440.759,68.998 440.526,68.998 440.293,68.998 440.059,68.998 439.826,68.998 439.592,68.998 439.359,68.998 439.125,68.998 438.892,69.8373 438.658,69.9306 438.425,69.9306 438.191,69.9306 437.958,69.9306 437.724,69.9306 437.491,69.9306 437.258,69.9306 437.024,69.9306 436.791,69.9306 436.557,70.3502 436.324,70.8165 436.09,71.2827 435.857,71.3294 435.623,72.1686 435.39,72.2619 435.156,72.2619 434.923,72.2619 434.689,72.6815 434.456,72.7282 434.223,73.1478 433.989,73.6141 433.756,74.5 433.522,75.0129 433.289,75.8988 433.055,76.8314 432.822,77.3442 432.588,78.2302 432.355,79.5357 432.121,81.3542 431.888,82.0069 431.654,82.4732 431.421,83.7321 431.188,84.7579 430.954,84.8512 430.721,85.6439 430.487,86.2034 430.254,86.6696 430.02,87.1359 429.787,87.1826 429.553,87.1826 429.32,86.7629 429.086,86.2966 428.853,85.0377 428.62,84.0585 428.386,83.126 428.153,81.7738 427.919,80.7946 427.686,79.8621 427.452,78.5099 427.219,77.5308 426.985,76.9712 426.752,76.9246 426.518,75.7123 426.285,75.5258 426.051,75.1062 425.818,74.6399 425.585,73.381 425.351,72.7748 425.118,71.5159 424.884,70.9097 424.651,70.4435 424.417,69.9772 424.184,69.9306 423.95,69.9306 423.717,69.9306 423.483,69.9306 423.25,69.9306 423.016,69.9306 422.783,69.9306 422.55,69.9306 422.316,69.9306 422.083,69.9306 421.849,69.9306 421.616,69.9306 421.382,69.9306 421.149,69.9306 420.915,69.9306 420.682,69.9306 420.448,69.9306 420.215,69.9306 419.981,69.1379 419.748,68.998 419.515,68.998 419.281,68.998 419.048,69.7907 418.814,69.9306 418.581,69.9306 418.347,69.9306 418.114,69.9306 417.88,69.9306 417.647,69.9306 417.413,69.9306 417.18,69.9306 416.946,69.9306 416.713,69.9306 416.48,69.9306 416.246,69.9306 416.013,69.9306 415.779,69.9306 415.546,69.9306 415.312,69.9306 415.079,69.9306 414.845,69.9306 414.612,69.9306 414.378,69.9306 414.145,69.9306 413.911,69.9306 413.678,69.9306 413.445,69.9306 413.211,69.9306 412.978,69.9306 412.744,69.9306 412.511,69.9306 412.277,69.1379 412.044,68.998 411.81,69.744 411.577,69.1845 411.343,68.998 411.11,68.998 410.876,68.998 410.643,68.998 410.41,68.998 410.176,68.998 409.943,68.998 409.709,68.998 409.476,68.998 409.242,68.998 409.009,68.998 408.775,68.998 408.542,68.625 408.308,68.9048 408.075,68.998 407.841,68.998 407.608,68.998 407.375,68.998 407.141,68.998 406.908,68.998 406.674,68.998 406.441,68.998 406.207,68.998 405.974,68.998 405.74,68.998 405.507,69.744 405.273,69.1845 405.04,68.998 404.807,68.998 404.573,68.998 404.34,68.998 404.106,68.998 403.873,68.998 403.639,68.998 403.406,68.998 403.172,68.998 402.939,68.998 402.705,68.998 402.472,68.998 402.238,68.998 402.005,68.998 401.772,68.998 401.538,68.998 401.305,68.998 401.071,68.998 400.838,68.998 400.604,68.998 400.371,68.998 400.137,68.998 399.904,68.998 399.67,68.998 399.437,68.998 399.203,69.744 398.97,69.9306 398.737,69.9306 398.503,69.9306 398.27,69.9306 398.036,69.9306 397.803,69.9306 397.569,69.9306 397.336,69.9306 397.102,70.3036 396.869,70.3969 396.635,70.3969 396.402,70.3969 396.168,70.3969 395.935,70.3969 395.702,70.3969 395.468,70.3969 395.235,70.3969 395.001,70.3969 394.768,70.3969 394.534,70.3969 394.301,70.0238 394.067,69.9306 393.834,69.9306 393.6,69.9306 393.367,69.9306 393.134,69.9306 392.9,69.9306 392.667,69.9306 392.433,69.9306 392.2,69.9306 391.966,69.9306 391.733,69.9306 391.499,69.9306 391.266,69.9306 391.032,69.9306 390.799,69.9306 390.565,69.9306 390.332,69.9306 390.099,69.9306 389.865,69.9306 389.632,69.9306 389.398,69.9306 389.165,69.9306 388.931,69.9306 388.698,69.9306 388.464,69.9306 388.231,69.9306 387.997,69.9306 387.764,69.9306 387.53,69.9306 387.297,69.9306 387.064,69.9306 386.83,69.9306 386.597,69.9306 386.363,69.9306 386.13,69.9306 385.896,69.9306 385.663,69.9306 385.429,69.9306 385.196,69.9306 384.962,70.257 384.729,70.3969 384.495,70.3969 384.262,70.3969 384.029,70.3969 383.795,70.3969 383.562,70.3969 383.328,70.3969 383.095,70.3969 382.861,70.3969 382.628,70.3969 382.394,70.3969 382.161,70.3969 381.927,70.3969 381.694,70.3969 381.461,70.3969 381.227,70.0705 380.994,69.9306 380.76,69.9306 380.527,70.257 380.293,70.3969 380.06,70.7232 379.826,71.1895 379.593,72.0288 379.359,72.5883 379.126,72.7282 378.892,72.7282 378.659,72.7282 378.426,72.7282 378.192,72.7282 377.959,72.7282 377.725,72.7282 377.492,72.7282 377.258,72.7282 377.025,72.7282 376.791,72.7282 376.558,72.7282 376.324,72.7282 376.091,72.7282 375.857,72.7282 375.624,72.7282 375.391,72.7282 375.157,72.7282 374.924,72.7282 374.69,72.7282 374.457,72.7282 374.223,72.7282 373.99,72.7282 373.756,72.7282 373.523,72.7282 373.289,72.7282 373.056,72.7282 372.822,72.7282 372.589,72.7282 372.356,72.7282 372.122,72.7282 371.889,72.7282 371.655,72.7282 371.422,72.7282 371.188,72.7282 370.955,72.7282 370.721,72.7282 370.488,72.7282 370.254,72.7282 370.021,72.7282 369.787,72.7282 369.554,72.7282 369.321,73.0546 369.087,73.1945 368.854,73.1945 368.62,73.5208 368.387,73.6607 368.153,73.6607 367.92,73.6607 367.686,73.6607 367.453,73.6607 367.219,73.6607 366.986,74.3135 366.753,74.5933 366.519,74.5933 366.286,74.5933 366.052,74.5933 365.819,74.5933 365.585,74.5933 365.352,74.5933 365.118,74.5933 364.885,74.5933 364.651,74.5933 364.418,74.9196 364.184,75.0595 363.951,75.0595 363.717,75.0595 363.484,75.0595 363.251,75.0595 363.017,75.0595 362.784,75.0595 362.55,75.0595 362.317,75.0595 362.083,75.0595 361.85,75.0595 361.616,75.0595 361.383,75.3859 361.149,75.5258 360.916,75.1994 360.682,75.0595 360.449,75.0595 360.216,75.0595 359.982,75.3859 359.749,75.5258 359.515,75.5258 359.282,75.5258 359.048,75.5258 358.815,75.8522 358.581,75.9921 358.348,76.6448 358.114,76.9246 357.881,76.9246 357.648,76.9246 357.414,76.9246 357.181,76.9246 356.947,77.251 356.714,77.3909 356.48,77.3909 356.247,77.7173 356.013,78.1835 355.78,78.9762 355.546,79.256 355.313,79.5823 355.079,79.7222 354.846,79.7222 354.613,79.7222 354.379,80.0486 354.146,80.1885 353.912,80.1885 353.679,80.5149 353.445,81.2609 353.212,81.5873 352.978,81.5873 352.745,81.5873 352.511,81.5873 352.278,81.5873 352.044,81.5873 351.811,81.5873 351.578,81.9137 351.344,82.0536 351.111,82.0536 350.877,82.0536 350.644,82.0536 350.41,82.0536 350.177,82.0536 349.943,82.0536 349.71,82.38 349.476,82.5198 349.243,82.5198 349.009,82.5198 348.776,82.5198 348.543,82.5198 348.309,82.5198 348.076,82.5198 347.842,82.8462 347.609,83.5923 347.375,83.9187 347.142,83.9187 346.908,83.9187 346.675,84.2451 346.441,84.3849 346.208,84.6647 345.975,84.8512 345.741,85.4574 345.508,86.0635 345.274,86.5298 345.041,87.6022 344.807,88.1151 344.574,88.3948 344.34,88.8611 344.107,89.3274 343.873,90.3998 343.64,92.125 343.406,93.6637 343.173,95.6687 342.94,97.7202 342.706,99.5853 342.473,100.844 342.239,102.383 342.006,104.248 341.772,106.393 341.539,108.398 341.305,109.703 341.072,111.195 340.838,113.387 340.605,115.112 340.371,116.231 340.138,116.837 339.905,117.91 339.671,119.029 339.438,120.241 339.204,121.92 338.971,124.064 338.737,125.557 338.504,127.328 338.27,129.38 338.037,131.525 337.803,133.297 337.57,134.089 337.336,134.556 337.103,134.742 336.87,134.742 336.636,135.022 336.403,135.768 336.169,136.141 335.936,136.421 335.702,136.607 335.469,136.607 335.235,136.887 335.002,137.353 334.768,137.54 334.535,138.099 334.302,139.032 334.068,140.57 333.835,142.436 333.601,144.86 333.368,147.378 333.134,150.269 332.901,154.698 332.667,159.501 332.434,163.324 332.2,166.868 331.967,169.153 331.733,170.272 331.5,170.645 331.267,170.085 331.033,169.433 330.8,168.127 330.566,165.936 330.333,163.651 330.099,160.713 329.866,157.776 329.632,154.139 329.399,150.502 329.165,146.399 328.932,141.456 328.698,136.607 328.465,131.618 328.232,126.815 327.998,122.153 327.765,116.931 327.531,112.454 327.298,108.444 327.064,104.808 326.831,102.942 326.597,101.45 326.364,100.425 326.13,99.9583 325.897,99.2123 325.664,98.8393 325.43,98.8393 325.197,98.8393 324.963,99.3988 324.73,100.052 324.496,100.238 324.263,100.238 324.029,100.518 323.796,101.544 323.562,102.383 323.329,103.922 323.095,106.533 322.862,108.258 322.628,109.19 322.395,111.195 322.162,113.434 321.928,116.651 321.695,120.894 321.461,124.811 321.228,128.261 320.994,131.525 320.761,135.068 320.527,139.311 320.294,143.974 320.06,148.637 319.827,154.092 319.594,159.594 319.36,165.563 319.127,171.811 318.893,177.359 318.66,181.369 318.426,184.12 318.193,186.172 317.959,187.244 317.726,187.71 317.492,187.897 317.259,187.897 317.025,187.617 316.792,187.151 316.559,186.685 316.325,185.705 316.092,183.794 315.858,182.488 315.625,181.229 315.391,178.338 315.158,174.608 314.924,170.365 314.691,166.448 314.457,162.159 314.224,158.335 313.99,154.745 313.757,151.341 313.523,148.031 313.29,144.813 313.057,142.296 312.823,140.477 312.59,139.358 312.356,137.913 312.123,135.255 311.889,132.784 311.656,130.919 311.422,129.054 311.189,127.189 310.955,125.836 310.722,124.111 310.489,121.034 310.255,118.562 310.022,116.651 309.788,114.599 309.555,112.454 309.321,109.89 309.088,107.838 308.854,105.973 308.621,103.875 308.387,102.01 308.154,100.658 307.92,99.4921 307.687,98.3264 307.454,97.1607 307.22,96.2748 306.987,95.5288 306.753,94.3631 306.52,93.4772 306.286,93.244 306.053,93.0109 305.819,92.2649 305.586,91.6121 305.352,91.379 305.119,91.379 304.885,91.379 304.652,91.1458 304.419,90.9127 304.185,90.9127 303.952,90.9127 303.718,90.9127 303.485,90.9127 303.251,90.9127 303.018,90.9127 302.784,90.9127 302.551,90.9127 302.317,90.9127 302.084,90.9127 301.85,90.9127 301.617,91.1458 301.384,91.6121 301.15,91.8452 300.917,91.8452 300.683,92.3582 300.45,92.7778 300.216,92.7778 299.983,93.0109 299.749,93.244 299.516,93.4772 299.282,93.7103 299.049,93.7103 298.816,93.7103 298.582,93.7103 298.349,93.7103 298.115,93.7103 297.882,93.4772 297.648,93.244 297.415,93.244 297.181,93.244 296.948,93.244 296.714,93.244 296.481,93.244 296.247,93.244 296.014,93.244 295.781,93.0109 295.547,92.3115 295.314,91.8452 295.08,91.6121 294.847,91.379 294.613,91.379 294.38,91.1458 294.146,90.6796 293.913,90.4464 293.679,90.4464 293.446,90.4464 293.212,90.4464 292.979,90.4464 292.746,90.4464 292.512,90.4464 292.279,90.4464 292.045,90.4464 291.812,90.6796 291.578,90.9127 291.345,90.6796 291.111,90.4464 290.878,90.6796 290.644,90.9127 290.411,90.9127 290.177,90.9127 289.944,91.1458 289.711,91.379 289.477,91.379 289.244,91.6121 289.01,92.3115 288.777,93.0109 288.543,93.4772 288.31,93.9435 288.076,94.1766 287.843,94.1766 287.609,94.1766 287.376,94.1766 287.143,94.6429 286.909,95.3423 286.676,95.8085 286.442,96.2748 286.209,97.2074 285.975,98.373 285.742,99.3056 285.508,100.471 285.275,101.87 285.041,103.036 284.808,105.32 284.574,107.932 284.341,109.097 284.108,110.449 283.874,112.314 283.641,113.993 283.407,115.345 283.174,116.324 282.94,116.791 282.707,117.024 282.473,116.791 282.24,116.558 282.006,116.324 281.773,116.091 281.539,116.091 281.306,116.091 281.073,116.091 280.839,115.858 280.606,114.972 280.372,113.807 280.139,112.874 279.905,112.361 279.672,112.361 279.438,112.361 279.205,112.361 278.971,112.781 278.738,113.527 278.504,113.76 278.271,113.993 278.038,114.459 277.804,115.578 277.571,118.283 277.337,122.479 277.104,126.023 276.87,129.24 276.637,132.551 276.403,136.188 276.17,141.083 275.936,145.56 275.703,149.29 275.47,151.901 275.236,152.927 275.003,152.274 274.769,150.222 274.536,147.658 274.302,145.093 274.069,141.876 273.835,139.451 273.602,138.939 273.368,138.939 273.135,139.172 272.901,139.638 272.668,140.524 272.435,141.503 272.201,141.969 271.968,142.622 271.734,143.368 271.501,143.834 271.267,144.067 271.034,144.254 270.8,144.953 270.567,145.886 270.333,147.005 270.1,148.404 269.866,150.222 269.633,152.367 269.4,154.419 269.166,156.33 268.933,157.31 268.699,157.403 268.466,156.097 268.232,153.766 267.999,150.828 267.765,146.865 267.532,142.482 267.298,137.633 267.065,133.53 266.831,130.312 266.598,127.189 266.365,125.696 266.131,125.23 265.898,124.95 265.664,124.531 265.431,124.018 265.197,124.018 264.964,124.018 264.73,123.831 264.497,123.132 264.263,121.826 264.03,119.542 263.797,115.951 263.563,111.522 263.33,107.512 263.096,104.947 262.863,103.828 262.629,101.823 262.396,99.632 262.162,98.6528 261.929,98.373 261.695,98.1865 261.462,97.7202 261.228,97.4405 260.995,97.0675 260.761,96.5079 260.528,96.3214 260.295,95.8552 260.061,95.3889 259.828,94.7361 259.594,93.8036 259.361,92.6379 259.127,91.6588 258.894,91.006 258.66,89.8869 258.427,88.8611 258.193,88.5814 257.96,88.3948 257.727,88.1151 257.493,88.1151 257.26,88.1151 257.026,88.1151 256.793,87.7421 256.559,87.1826 256.326,86.9961 256.092,86.7163 255.859,86.7163 255.625,86.7163 255.392,86.5298 255.158,86.0635 254.925,85.7838 254.692,85.7838 254.458,85.7838 254.225,85.7838 253.991,85.4107 253.758,84.8512 253.524,84.8512 253.291,84.8512 253.057,84.8512 252.824,84.8512 252.59,84.8512 252.357,84.8512 252.123,84.8512 251.89,84.8512 251.657,84.8512 251.423,84.8512 251.19,84.8512 250.956,84.8512 250.723,84.8512 250.489,84.8512 250.256,84.8512 250.022,84.6647 249.789,84.3849 249.555,84.3849 249.322,84.3849 249.088,84.3849 248.855,84.3849 248.622,84.3849 248.388,84.3849 248.155,84.3849 247.921,84.3849 247.688,84.3849 247.454,84.3849 247.221,84.3849 246.987,84.3849 246.754,84.3849 246.52,84.3849 246.287,84.3849 246.053,84.3849 245.82,84.3849 245.587,84.3849 245.353,84.3849 245.12,84.3849 244.886,84.3849 244.653,84.3849 244.419,84.3849 244.186,84.3849 243.952,84.3849 243.719,84.3849 243.485,84.3849 243.252,84.1984 243.018,83.9187 242.785,84.1052 242.552,84.3849 242.318,84.3849 242.085,84.1984 241.851,83.9187 241.618,84.1052 241.384,84.3849 241.151,84.3849 240.917,84.3849 240.684,84.3849 240.45,84.3849 240.217,84.3849 239.984,84.3849 239.75,84.3849 239.517,84.3849 239.283,84.3849 239.05,84.3849 238.816,84.3849 238.583,84.3849 238.349,84.3849 238.116,84.3849 237.882,84.3849 237.649,84.3849 237.415,84.3849 237.182,84.3849 236.949,84.3849 236.715,84.3849 236.482,84.3849 236.248,84.3849 236.015,84.3849 235.781,84.3849 235.548,84.3849 235.314,84.3849 235.081,84.3849 234.847,84.3849 234.614,84.3849 234.38,84.3849 234.147,84.3849 233.914,84.3849 233.68,84.2451 233.447,83.9187 233.213,83.9187 232.98,84.0585 232.746,84.3849 232.513,84.3849 232.279,84.3849 232.046,84.5248 231.812,84.8512 231.579,84.8512 231.346,84.8512 231.112,84.8512 230.879,84.8512 230.645,84.8512 230.412,84.8512 230.178,84.8512 229.945,84.8512 229.711,84.8512 229.478,84.8512 229.244,84.8512 229.011,84.8512 228.777,84.8512 228.544,84.8512 228.311,84.8512 228.077,84.8512 227.844,85.1776 227.61,85.7838 227.377,85.7838 227.143,85.9236 226.91,86.25 226.676,86.25 226.443,86.25 226.209,86.3899 225.976,86.7163 225.742,86.8561 225.509,87.1826 225.276,87.1826 225.042,87.5089 224.809,88.1151 224.575,88.1151 224.342,88.1151 224.108,88.1151 223.875,88.255 223.641,88.5814 223.408,88.7212 223.174,89.1875 222.941,89.5139 222.707,89.5139 222.474,89.5139 222.241,89.5139 222.007,89.5139 221.774,89.5139 221.54,89.7937 221.307,90.4464 221.073,90.4464 220.84,90.4464 220.606,90.5863 220.373,90.9127 220.139,90.9127 219.906,90.9127 219.672,91.0526 219.439,91.5189 219.206,92.125 218.972,93.1974 218.739,94.4564 218.505,95.3889 218.272,96.1815 218.038,96.9276 217.805,98.1865 217.571,98.8393 217.338,99.119 217.104,99.7718 216.871,99.7718 216.637,99.7718 216.404,99.7718 216.171,99.7718 215.937,99.7718 215.704,99.7718 215.47,99.4921 215.237,98.8393 215.003,98.6994 214.77,98.2332 214.536,97.7669 214.303,97.1607 214.069,96.2282 213.836,95.1558 213.603,93.8968 213.369,92.8244 213.136,91.8452 212.902,91.5655 212.669,90.4931 212.435,89.374 212.202,88.9077 211.968,88.5814 211.735,88.4415 211.501,87.8353 211.268,87.0427 211.034,86.5764 210.801,86.25 210.568,86.1101 210.334,85.7838 210.101,85.7838 209.867,85.7838 209.634,85.7838 209.4,85.7838 209.167,85.504 208.933,84.8512 208.7,84.8512 208.466,84.8512 208.233,84.8512 207.999,84.8512 207.766,84.8512 207.533,84.8512 207.299,84.8512 207.066,84.8512 206.832,84.8512 206.599,84.8512 206.365,84.8512 206.132,84.8512 205.898,84.8512 205.665,84.8512 205.431,84.8512 205.198,84.8512 204.964,85.0843 204.731,85.7838 204.498,85.7838 204.264,85.7838 204.031,85.7838 203.797,85.7838 203.564,85.7838 203.33,85.9236 203.097,86.25 202.863,86.25 202.63,86.25 202.396,86.25 202.163,86.25 201.929,86.25 201.696,86.25 201.463,86.25 201.229,86.3899 200.996,86.8561 200.762,87.1826 200.529,87.1826 200.295,87.1826 200.062,87.1826 199.828,87.1826 199.595,87.1826 199.361,87.1826 199.128,87.1826 198.894,87.1826 198.661,87.1826 198.428,87.1826 198.194,87.1826 197.961,87.1826 197.727,87.1826 197.494,87.4157 197.26,88.1151 197.027,88.1151 196.793,88.1151 196.56,88.1151 196.326,88.1151 196.093,88.1151 195.859,88.1151 195.626,88.1151 195.393,88.1151 195.159,88.2083 194.926,88.5814 194.692,88.5814 194.459,88.5814 194.225,88.6746 193.992,89.1409 193.758,89.747 193.525,90.4464 193.291,90.5397 193.058,90.9127 192.825,90.9127 192.591,90.9127 192.358,90.9127 192.124,90.9127 191.891,90.9127 191.657,90.9127 191.424,91.006 191.19,91.379 190.957,91.379 190.723,91.379 190.49,91.379 190.256,91.379 190.023,91.379 189.79,91.4722 189.556,91.8452 189.323,92.0784 189.089,92.7778 188.856,92.7778 188.622,92.7778 188.389,92.7778 188.155,92.7778 187.922,92.7778 187.688,92.7778 187.455,92.7778 187.221,92.7778 186.988,92.7778 186.755,92.7778 186.521,92.8711 186.288,93.244 186.054,93.244 185.821,93.244 185.587,93.244 185.354,93.244 185.12,93.244 184.887,93.3373 184.653,93.7103 184.42,93.7103 184.187,93.7103 183.953,93.6171 183.72,93.244 183.486,93.244 183.253,93.244 183.019,93.244 182.786,93.244 182.552,93.244 182.319,93.244 182.085,93.244 181.852,93.244 181.618,93.244 181.385,93.244 181.152,93.1508 180.918,92.7778 180.685,92.7778 180.451,92.7778 180.218,92.7778 179.984,92.7778 179.751,92.7778 179.517,92.7778 179.284,92.7778 179.05,92.7778 178.817,92.7778 178.583,92.7778 178.35,92.7778 178.117,92.7778 177.883,92.7778 177.65,92.7778 177.416,92.7778 177.183,92.7778 176.949,92.5913 176.716,91.8452 176.482,91.752 176.249,91.379 176.015,91.4722 175.782,91.8452 175.548,91.8452 175.315,91.8452 175.082,91.8452 174.848,91.6588 174.615,90.9127 174.381,91.006 174.148,91.379 173.914,91.379 173.681,91.379 173.447,91.379 173.214,91.379 172.98,91.379 172.747,91.379 172.513,91.379 172.28,91.379 172.047,91.379 171.813,91.379 171.58,91.379 171.346,91.379 171.113,91.379 170.879,91.379 170.646,91.4722 170.412,91.8452 170.179,91.8452 169.945,91.8452 169.712,91.8452 169.479,91.8452 169.245,91.8452 169.012,91.8452 168.778,91.8452 168.545,91.8452 168.311,91.8452 168.078,91.8452 167.844,91.8452 167.611,91.8452 167.377,91.8452 167.144,91.8452 166.91,91.752 166.677,91.2857 166.444,90.6796 166.21,89.5139 165.977,89.4206 165.743,89.0476 165.51,89.0476 165.276,89.0476 165.043,89.0476 164.809,89.0476 164.576,89.0476 164.342,89.0476 164.109,89.0476 163.875,89.0476 163.642,88.9544 163.409,88.5814 163.175,88.5814 162.942,88.6746 162.708,89.1409 162.475,89.5139 162.241,89.5139 162.008,89.5139 161.774,89.4206 161.541,89.0476 161.307,89.0476 161.074,89.0476 160.84,89.0476 160.607,89.0476 160.374,89.0476 160.14,89.0476 159.907,89.0476 159.673,89.0476 159.44,89.0476 159.206,88.9544 158.973,88.5814 158.739,88.5814 158.506,88.5814 158.272,88.5814 158.039,88.5814 157.805,88.5814 157.572,88.5347 157.339,88.1151 157.105,88.1151 156.872,88.1151 156.638,88.1151 156.405,88.1151 156.171,88.1151 155.938,88.1151 155.704,88.1151 155.471,88.1151 155.237,88.1151 155.004,88.1151 154.77,88.1617 154.537,88.5814 154.304,88.5347 154.07,88.1151 153.837,88.1151 153.603,88.1151 153.37,88.1151 153.136,88.1151 152.903,88.1151 152.669,88.1151 152.436,88.1151 152.202,88.1151 151.969,87.9752 151.736,87.1826 151.502,87.1826 151.269,87.1359 151.035,86.7163 150.802,86.7163 150.568,86.7163 150.335,86.7163 150.101,86.7163 149.868,86.7163 149.634,86.7163 149.401,86.7163 149.167,86.7163 148.934,86.7629 148.701,87.1826 148.467,87.1826 148.234,87.1359 148,86.7163 147.767,86.7163 147.533,86.7163 147.3,86.7163 147.066,86.7163 146.833,86.7629 146.599,87.1826 146.366,87.1826 146.132,87.1826 145.899,87.1359 145.666,86.7163 145.432,86.7163 145.199,86.7163 144.965,86.7163 144.732,86.7163 144.498,86.7163 144.265,86.6696 144.031,86.25 143.798,86.25 143.564,86.25 143.331,86.25 143.097,86.25 142.864,86.25 142.631,86.25 142.397,86.25 142.164,86.25 141.93,86.25 141.697,86.25 141.463,86.25 141.23,86.25 140.996,86.25 140.763,86.25 140.529,86.25 140.296,86.25 140.062,86.25 139.829,86.25 139.596,86.25 139.362,86.25 139.129,86.25 138.895,86.25 138.662,86.2966 138.428,86.7163 138.195,86.7163 137.961,86.7163 137.728,86.7629 137.494,87.1826 137.261,87.1826 137.028,87.1826 136.794,87.1826 136.561,87.1826 136.327,87.1826 136.094,87.1826 135.86,87.1359 135.627,86.7163 135.393,86.7163 135.16,86.7163 134.926,86.7163 134.693,86.7163 134.459,86.7163 134.226,86.7163 133.993,86.7163 133.759,86.7163 133.526,86.7163 133.292,86.7163 133.059,86.7163 132.825,86.7163 132.592,86.7163 132.358,86.7163 132.125,86.7163 131.891,86.7163 131.658,86.7163 131.424,86.7163 131.191,86.7163 130.958,86.7163 130.724,86.7163 130.491,86.7163 130.257,86.7163 130.024,86.7163 129.79,86.7163 129.557,86.7163 129.323,86.7163 129.09,86.7163 128.856,86.7163 128.623,86.7163 128.389,86.7163 128.156,86.7163 127.923,86.7163 127.689,86.7163 127.456,86.7163 127.222,86.7163 126.989,86.7163 126.755,86.7163 126.522,86.7163 126.288,86.7163 126.055,86.7163 125.821,86.7163 125.588,86.7163 125.355,86.7629 125.121,87.1826 124.888,87.1826 124.654,87.1826 124.421,87.1826 124.187,87.2292 123.954,88.1151 123.72,88.1151 123.487,88.1151 123.253,88.1151 123.02,88.1151 122.786,88.1151 122.553,88.1151 122.32,88.1151 122.086,88.1151 121.853,88.1151 121.619,88.1151 121.386,88.1151 121.152,88.1151 120.919,88.1151 120.685,88.1151 120.452,88.1151 120.218,88.1151 119.985,88.1151 119.751,88.1151 119.518,88.1151 119.285,88.1151 119.051,88.0685 118.818,87.1826 118.584,87.1826 118.351,87.1826 118.117,87.1826 117.884,87.1826 117.65,87.1826 117.417,87.1826 117.183,87.1826 116.95,87.1826 116.716,86.7163 116.483,86.7163 116.25,86.7163 116.016,86.7163 115.783,86.7163 115.549,86.7163 115.316,86.7163 115.082,86.7163 114.849,86.7163 114.615,86.7163 114.382,86.25 114.148,86.25 113.915,86.25 113.681,86.25 113.448,86.25 113.215,86.25 112.981,86.25 112.748,86.25 112.514,86.25 112.281,86.25 112.047,86.25 111.814,86.25 111.58,86.25 111.347,86.25 111.113,86.25 110.88,86.25 110.646,86.25 110.413,86.25 110.18,86.25 109.946,86.25 109.713,86.25 109.479,86.25 109.246,86.25 109.012,86.25 108.779,86.25 108.545,86.25 108.312,86.25 108.078,86.25 107.845,86.25 107.611,86.25 107.378,86.25 107.145,86.25 106.911,86.25 106.678,86.25 106.444,86.25 106.211,86.25 105.977,86.25 105.744,86.25 105.51,86.25 105.277,86.25 105.043,86.25 104.81,85.7838 104.577,85.7838 104.343,85.7838 104.11,85.7838 103.876,85.7838 103.643,85.7838 103.409,84.8512 103.176,84.8512 102.942,84.8512 102.709,84.8512 102.475,84.8512 102.242,84.8512 102.008,84.8512 101.775,84.8512 101.542,84.8512 101.308,84.8512 101.075,84.8512 100.841,84.8512 100.608,84.8512 100.374,84.8512 100.141,84.8512 99.9073,84.8512 99.6739,84.8512 99.4404,84.3849 99.2069,84.3849 98.9735,84.3849 98.74,84.3849 98.5066,84.3849 98.2731,84.3849 98.0396,84.3849 97.8062,84.3849 97.5727,84.3849 97.3392,84.3849 97.1058,84.3849 96.8723,83.9187 96.6389,83.9187 96.4054,83.9187 96.172,83.9187 95.9385,82.9861 95.705,82.5198 95.4716,82.5198 95.2381,82.5198"/>
</g>
</svg>