<?xml version="1.0" encoding="UTF-8"?>
<svg version="1.1" xmlns="http://www.w3.org/2000/svg" xmlns:xlink="http://www.w3.org/1999/xlink" viewBox="0 0 800 600">
<g>
<text fill="#000000" font-family="sans-serif" font-size="19.0476" text-anchor="start" x="4.7619" y="591.429">
NIST Chemistry WebBook (https://webbook.nist.gov/chemistry)
</text>
<polyline stroke="#000000" stroke-width="1.19048" fill="none" points="95.2381,514.286 742.857,514.286 742.857,66.6667 95.2381,66.6667 95.2381,514.286"/>
<text fill="#000000" font-family="sans-serif" font-size="19.0476" text-anchor="middle" x="419.048" y="24.7619">
Cinnamylaldehyde
</text>
<text fill="#000000" font-family="sans-serif" font-size="19.0476" text-anchor="middle" x="419.048" y="53.3333">
UV/VIS SPECTRUM
</text>
<text fill="#000000" font-family="sans-serif" font-size="19.0476" text-anchor="middle" x="419.048" y="558.095">
Wavelength (nm)
</text>
<text fill="#000000" font-family="sans-serif" font-size="19.0476" text-anchor="middle" transform="translate(20,290.476) rotate(270)" x="0" y="0">
Logarithm epsilon
</text>
<text fill="#000000" font-family="sans-serif" font-size="19.0476" text-anchor="middle" x="206.096" y="534.286">
240
</text>
<line stroke="#000000" stroke-width="1.19048" x1="206.096" y1="514.286" x2="206.096" y2="504.762"/>
<text fill="#000000" font-family="sans-serif" font-size="19.0476" text-anchor="middle" x="354.948" y="534.286">
280
</text>
<line stroke="#000000" stroke-width="1.19048" x1="354.948" y1="514.286" x2="354.948" y2="504.762"/>
<text fill="#000000" font-family="sans-serif" font-size="19.0476" text-anchor="middle" x="503.8" y="534.286">
320
</text>
<line stroke="#000000" stroke-width="1.19048" x1="503.8" y1="514.286" x2="503.8" y2="504.762"/>
<text fill="#000000" font-family="sans-serif" font-size="19.0476" text-anchor="middle" x="652.653" y="534.286">
360
</text>
<line stroke="#000000" stroke-width="1.19048" x1="652.653" y1="514.286" x2="652.653" y2="504.762"/>
<line stroke="#000000" stroke-width="1.19048" x1="131.67" y1="514.286" x2="131.67" y2="509.524"/>
<line stroke="#000000" stroke-width="1.19048" x1="168.883" y1="514.286" x2="168.883" y2="509.524"/>
<line stroke="#000000" stroke-width="1.19048" x1="206.096" y1="514.286" x2="206.096" y2="509.524"/>
<line stroke="#000000" stroke-width="1.19048" x1="243.309" y1="514.286" x2="243.309" y2="509.524"/>
<line stroke="#000000" stroke-width="1.19048" x1="280.522" y1="514.286" x2="280.522" y2="509.524"/>
<line stroke="#000000" stroke-width="1.19048" x1="317.735" y1="514.286" x2="317.735" y2="509.524"/>
<line stroke="#000000" stroke-width="1.19048" x1="354.948" y1="514.286" x2="354.948" y2="509.524"/>
<line stroke="#000000" stroke-width="1.19048" x1="392.161" y1="514.286" x2="392.161" y2="509.524"/>
<line stroke="#000000" stroke-width="1.19048" x1="429.374" y1="514.286" x2="429.374" y2="509.524"/>
<line stroke="#000000" stroke-width="1.19048" x1="466.587" y1="514.286" x2="466.587" y2="509.524"/>
<line stroke="#000000" stroke-width="1.19048" x1="503.8" y1="514.286" x2="503.8" y2="509.524"/>
<line stroke="#000000" stroke-width="1.19048" x1="541.013" y1="514.286" x2="541.013" y2="509.524"/>
<line stroke="#000000" stroke-width="1.19048" x1="578.227" y1="514.286" x2="578.227" y2="509.524"/>
<line stroke="#000000" stroke-width="1.19048" x1="615.44" y1="514.286" x2="615.44" y2="509.524"/>
<line stroke="#000000" stroke-width="1.19048" x1="652.653" y1="514.286" x2="652.653" y2="509.524"/>
<line stroke="#000000" stroke-width="1.19048" x1="689.866" y1="514.286" x2="689.866" y2="509.524"/>
<line stroke="#000000" stroke-width="1.19048" x1="727.079" y1="514.286" x2="727.079" y2="509.524"/>
<text fill="#000000" font-family="sans-serif" font-size="19.0476" text-anchor="end" x="90.4762" y="394.67">
2
</text>
<line stroke="#000000" stroke-width="1.19048" x1="95.2381" y1="390.384" x2="104.762" y2="390.384"/>
<text fill="#000000" font-family="sans-serif" font-size="19.0476" text-anchor="end" x="90.4762" y="259.11">
3
</text>
<line stroke="#000000" stroke-width="1.19048" x1="95.2381" y1="254.824" x2="104.762" y2="254.824"/>
<text fill="#000000" font-family="sans-serif" font-size="19.0476" text-anchor="end" x="90.4762" y="123.55">
4
</text>
<line stroke="#000000" stroke-width="1.19048" x1="95.2381" y1="119.264" x2="104.762" y2="119.264"/>
<line stroke="#000000" stroke-width="1.19048" x1="95.2381" y1="512.388" x2="100" y2="512.388"/>
<line stroke="#000000" stroke-width="1.19048" x1="95.2381" y1="498.832" x2="100" y2="498.832"/>
<line stroke="#000000" stroke-width="1.19048" x1="95.2381" y1="485.276" x2="100" y2="485.276"/>
<line stroke="#000000" stroke-width="1.19048" x1="95.2381" y1="471.72" x2="100" y2="471.72"/>
<line stroke="#000000" stroke-width="1.19048" x1="95.2381" y1="458.164" x2="100" y2="458.164"/>
<line stroke="#000000" stroke-width="1.19048" x1="95.2381" y1="444.608" x2="100" y2="444.608"/>
<line stroke="#000000" stroke-width="1.19048" x1="95.2381" y1="431.052" x2="100" y2="431.052"/>
<line stroke="#000000" stroke-width="1.19048" x1="95.2381" y1="417.496" x2="100" y2="417.496"/>
<line stroke="#000000" stroke-width="1.19048" x1="95.2381" y1="403.94" x2="100" y2="403.94"/>
<line stroke="#000000" stroke-width="1.19048" x1="95.2381" y1="390.384" x2="100" y2="390.384"/>
<line stroke="#000000" stroke-width="1.19048" x1="95.2381" y1="376.828" x2="100" y2="376.828"/>
<line stroke="#000000" stroke-width="1.19048" x1="95.2381" y1="363.272" x2="100" y2="363.272"/>
<line stroke="#000000" stroke-width="1.19048" x1="95.2381" y1="349.716" x2="100" y2="349.716"/>
<line stroke="#000000" stroke-width="1.19048" x1="95.2381" y1="336.16" x2="100" y2="336.16"/>
<line stroke="#000000" stroke-width="1.19048" x1="95.2381" y1="322.604" x2="100" y2="322.604"/>
<line stroke="#000000" stroke-width="1.19048" x1="95.2381" y1="309.048" x2="100" y2="309.048"/>
<line stroke="#000000" stroke-width="1.19048" x1="95.2381" y1="295.492" x2="100" y2="295.492"/>
<line stroke="#000000" stroke-width="1.19048" x1="95.2381" y1="281.936" x2="100" y2="281.936"/>
<line stroke="#000000" stroke-width="1.19048" x1="95.2381" y1="268.38" x2="100" y2="268.38"/>
<line stroke="#000000" stroke-width="1.19048" x1="95.2381" y1="254.824" x2="100" y2="254.824"/>
<line stroke="#000000" stroke-width="1.19048" x1="95.2381" y1="241.268" x2="100" y2="241.268"/>
<line stroke="#000000" stroke-width="1.19048" x1="95.2381" y1="227.712" x2="100" y2="227.712"/>
<line stroke="#000000" stroke-width="1.19048" x1="95.2381" y1="214.156" x2="100" y2="214.156"/>
<line stroke="#000000" stroke-width="1.19048" x1="95.2381" y1="200.6" x2="100" y2="200.6"/>
<line stroke="#000000" stroke-width="1.19048" x1="95.2381" y1="187.044" x2="100" y2="187.044"/>
<line stroke="#000000" stroke-width="1.19048" x1="95.2381" y1="173.488" x2="100" y2="173.488"/>
<line stroke="#000000" stroke-width="1.19048" x1="95.2381" y1="159.932" x2="100" y2="159.932"/>
<line stroke="#000000" stroke-width="1.19048" x1="95.2381" y1="146.376" x2="100" y2="146.376"/>
<line stroke="#000000" stroke-width="1.19048" x1="95.2381" y1="132.82" x2="100" y2="132.82"/>
<line stroke="#000000" stroke-width="1.19048" x1="95.2381" y1="119.264" x2="100" y2="119.264"/>
<line stroke="#000000" stroke-width="1.19048" x1="95.2381" y1="105.708" x2="100" y2="105.708"/>
<line stroke="#000000" stroke-width="1.19048" x1="95.2381" y1="92.1522" x2="100" y2="92.1522"/>
<line stroke="#000000" stroke-width="1.19048" x1="95.2381" y1="78.5962" x2="100" y2="78.5962"/>
<polyline stroke="#FF0000" stroke-width="1.19048" fill="none" points="95.2381,115.197 95.6102,115.197 95.9451,115.197 96.3173,115.197 96.6522,115.197 97.0243,115.604 97.3964,115.604 97.7314,115.604 98.1035,115.604 98.4756,115.604 98.8105,115.875 99.1827,115.875 99.5548,115.875 99.8897,115.875 100.262,115.875 100.634,116.146 101.006,116.417 102.457,116.688 103.909,117.231 105.36,117.908 106.849,118.451 108.3,118.18 109.788,118.451 111.277,118.18 112.765,117.908 114.254,116.959 115.742,116.146 117.268,114.655 118.794,113.299 120.282,111.266 121.808,109.775 123.371,108.284 124.897,107.199 126.423,106.928 127.986,107.199 129.548,108.012 131.111,108.555 132.674,109.775 134.237,111.266 135.8,111.808 137.4,112.622 138.963,112.893 140.564,112.893 142.164,112.35 143.801,111.808 145.401,110.859 147.039,109.775 148.639,109.775 150.276,110.859 151.914,112.079 153.588,114.113 155.226,116.688 156.9,119.942 158.538,125.635 160.212,132.278 161.887,140.14 163.598,148.274 165.273,154.238 166.985,158.983 168.697,167.252 170.408,174.844 172.12,183.248 173.832,190.162 175.581,197.075 177.33,205.751 179.079,212.665 180.828,219.578 182.577,222.018 184.363,223.645 186.112,224.865 187.899,225.407 189.685,225.95 191.508,225.95 193.294,225.136 195.118,224.323 196.941,223.103 198.765,221.612 200.588,220.256 202.449,218.765 204.31,217.274 206.17,215.24 208.031,213.343 209.892,211.309 211.789,209.276 213.687,206.971 215.585,204.938 217.483,203.447 219.381,202.227 221.316,200.329 223.251,197.889 225.186,195.313 227.121,193.009 229.093,190.162 231.029,187.586 233.001,185.011 235.01,182.299 236.983,179.995 238.992,177.419 241.002,174.572 243.011,171.319 245.021,168.201 247.067,165.897 249.114,163.321 251.161,160.339 253.208,156.95 255.291,154.645 257.375,152.205 259.459,149.629 261.543,146.783 263.664,144.207 265.748,141.631 267.87,139.327 270.028,135.531 272.149,132.956 274.307,130.244 276.466,127.126 278.661,124.822 280.82,122.789 283.015,120.484 285.211,118.18 287.444,115.197 289.676,113.299 291.909,111.266 294.142,109.233 296.375,106.25 298.645,104.895 300.915,103.132 303.222,101.37 305.492,99.3367 307.799,97.0321 310.106,95.2698 312.451,93.6431 314.795,91.8808 317.14,89.8474 319.484,88.0852 321.866,86.3229 324.247,84.9673 326.629,83.4761 329.048,81.985 331.467,80.6294 333.885,79.1382 336.342,77.647 338.798,76.2915 341.254,75.0714 343.71,73.8513 346.203,72.7669 348.696,71.9535 351.227,71.0046 353.72,70.1913 356.288,69.5134 358.818,68.9712 361.386,68.429 363.954,68.1579 366.521,67.6156 369.126,67.209 371.731,66.9378 374.373,66.9378 377.015,66.9378 379.658,66.9378 382.3,66.6667 384.979,66.6667 387.696,66.9378 390.375,67.6156 393.091,68.1579 395.845,68.7001 398.562,69.2423 401.353,70.4623 404.107,71.5468 406.897,72.4958 409.688,73.5803 412.517,74.8003 415.345,76.2915 418.173,77.9182 421.039,80.2227 423.904,81.985 426.807,84.0183 429.709,86.3229 432.649,88.8985 435.552,90.9319 438.529,93.9143 441.468,96.4898 444.445,99.3367 447.46,102.183 450.474,106.521 453.488,110.317 456.54,113.57 459.591,117.637 462.68,121.975 465.769,126.313 468.895,130.922 472.02,135.802 475.146,141.225 478.309,145.969 481.51,151.392 484.71,158.983 487.91,165.625 491.148,172.81 494.385,181.215 497.66,190.975 500.935,202.227 504.247,212.123 507.559,222.832 509.829,228.39 514.294,238.692 518.462,247.233 521.439,254.688 524.454,262.144 527.914,269.329 531.375,276.649 534.836,284.647 538.334,291.29 541.832,297.661 545.367,305.794 548.94,312.166 552.512,319.079 555.526,324.637 559.471,329.924 562.932,333.855 566.69,338.736 570.486,343.751 574.096,347.276 578.152,351.478 581.911,355.274 585.669,358.392 589.465,360.967 593.261,363.95 597.131,367.068 600.964,370.592 604.871,373.439 608.778,376.015 612.686,379.268 616.668,382.115 620.649,385.639 624.631,388.486 628.65,392.553 632.706,395.671 636.8,399.195 640.893,402.72 645.024,407.058 649.192,410.176 653.36,414.242 657.565,418.309 661.807,422.647 666.087,426.714 670.366,430.374 674.683,434.712 679.037,438.779 683.391,444.066 687.782,448.946 692.21,453.284 696.676,458.164 701.141,463.044 705.681,467.653 710.221,473.211 714.799,477.82 719.376,483.378 724.027,488.529 728.679,495.714 733.368,501.814 738.094,508.185 742.857,514.286"/>
</g>
</svg>